<?xml version="1.0" standalone="no"?><!DOCTYPE svg PUBLIC "-//W3C//DTD SVG 1.1//EN" "http://www.w3.org/Graphics/SVG/1.1/DTD/svg11.dtd"><svg class="icon" width="200px" height="200.00px" viewBox="0 0 1024 1024" version="1.1" xmlns="http://www.w3.org/2000/svg"><path fill="#333333" d="M170.666667 170.666667m42.666666 0l213.333334 0q42.666667 0 42.666666 42.666666l0 213.333334q0 42.666667-42.666666 42.666666l-213.333334 0q-42.666667 0-42.666666-42.666666l0-213.333334q0-42.666667 42.666666-42.666666Z"  /><path fill="#333333" d="M554.666667 170.666667m42.666666 0l213.333334 0q42.666667 0 42.666666 42.666666l0 213.333334q0 42.666667-42.666666 42.666666l-213.333334 0q-42.666667 0-42.666666-42.666666l0-213.333334q0-42.666667 42.666666-42.666666Z"  /><path fill="#333333" d="M170.666667 554.666667m42.666666 0l213.333334 0q42.666667 0 42.666666 42.666666l0 213.333334q0 42.666667-42.666666 42.666666l-213.333334 0q-42.666667 0-42.666666-42.666666l0-213.333334q0-42.666667 42.666666-42.666666Z"  /><path fill="#333333" d="M554.666667 554.666667m42.666666 0l213.333334 0q42.666667 0 42.666666 42.666666l0 213.333334q0 42.666667-42.666666 42.666666l-213.333334 0q-42.666667 0-42.666666-42.666666l0-213.333334q0-42.666667 42.666666-42.666666Z"  /></svg>