<?xml version="1.0" standalone="no"?><!DOCTYPE svg PUBLIC "-//W3C//DTD SVG 1.1//EN" "http://www.w3.org/Graphics/SVG/1.1/DTD/svg11.dtd"><svg class="icon" width="200px" height="200.00px" viewBox="0 0 1024 1024" version="1.1" xmlns="http://www.w3.org/2000/svg"><path d="M874.5 497.5H136.9c-15.6 0-28.3-12.7-28.3-28.3V336c0-20.4 16.5-37 37-37h720.2c20.4 0 37 16.5 37 37v133.3c0 15.6-12.7 28.2-28.3 28.2z" fill="#CE302F" /><path d="M874.5 502.7H136.9c-18.4 0-33.4-15-33.4-33.4V336c0-23.2 18.9-42.1 42.1-42.1h720.2c23.2 0 42.1 18.9 42.1 42.1v133.3c0 18.4-15 33.4-33.4 33.4zM145.6 304.2c-17.5 0-31.8 14.3-31.8 31.8v133.3c0 12.7 10.4 23.1 23.1 23.1h737.6c12.7 0 23.1-10.4 23.1-23.1V336c0-17.5-14.3-31.8-31.8-31.8H145.6z" fill="#333333" /><path d="M803.3 928H208.1c-17.7 0-32-14.3-32-32V497.6h659.1v398.5c0.1 17.6-14.2 31.9-31.9 31.9z" fill="#CE302F" /><path d="M803.3 933.2H208.1c-20.5 0-37.2-16.7-37.2-37.2V492.4h669.5v403.7c0.1 20.4-16.6 37.1-37.1 37.1z m-622-430.5V896c0 14.8 12 26.8 26.8 26.8h595.2c14.8 0 26.8-12 26.8-26.8V502.7H181.3z" fill="#333333" /><path d="M182.3 503.9h647.1v66.4H182.3zM182.3 652.5v238.3c0 17.2 14 31.2 31.2 31.2h198.7S233 870.3 182.3 652.5z" fill="#921C1A" /><path d="M448.2 266.5s-212.1 7.9-189.5-58.4c22.7-66.3 148.3-36.7 193.7 4.7l45.4 41.4-49.6 12.3z" fill="#F8B739" /><path d="M428 271.9c-15.6 0-38.3-0.4-62.1-2.4-58.4-4.9-94.7-16.5-108.1-34.4-6.3-8.4-7.6-18.1-4-28.7 6.7-19.7 22.5-33.2 45.6-39.1 49.5-12.7 123.5 11.5 156.5 41.6l52.6 47.9-59.5 14.8h-0.5c-0.3 0-8.1 0.3-20.5 0.3z m-98.9-97.7c-9.6 0-18.7 1-27.1 3.1-19.8 5.1-32.7 16-38.4 32.4-2.5 7.3-1.7 13.6 2.5 19.2 23.1 31.1 138.2 34 181.3 32.4l39.8-9.9-38.2-34.9c-24.9-22.7-76.8-42.3-119.9-42.3z" fill="#333333" /><path d="M448.2 300.6s-212.1 7.9-189.5-58.4c22.7-66.3 148.3-36.7 193.7 4.7l45.4 41.4-49.6 12.3z" fill="#F8B739" /><path d="M428 306c-15.6 0-38.3-0.4-62.1-2.4-58.4-4.9-94.7-16.5-108.1-34.4-6.3-8.4-7.6-18.1-4-28.7 6.7-19.7 22.5-33.2 45.6-39.1 49.5-12.7 123.5 11.5 156.5 41.6l52.6 47.9-59.5 14.8h-0.5c-0.3 0.1-8.1 0.3-20.5 0.3z m-98.9-97.7c-9.6 0-18.7 1-27.1 3.1-19.8 5.1-32.7 16-38.4 32.4-2.5 7.3-1.7 13.6 2.5 19.2 23.1 31.1 138.2 34 181.3 32.4l39.8-9.9-38.2-34.8c-24.9-22.7-76.8-42.4-119.9-42.4z" fill="#333333" /><path d="M456.2 277.5s-155.3-11.8-182-28.4c-24.8-15.4 13.8-40.9 56.9-42.7 43.4-1.9 86.7 21.2 108.3 38.9 40.6 33.2 66.4 26.9 66.4 26.9l-49.6 5.3z" fill="#EFAC35" /><path d="M563.2 269.7s212.1 7.9 189.5-58.4S604.4 174.6 559 216l-45.4 41.4 49.6 12.3z" fill="#F8B739" /><path d="M583.5 275.1c-12.4 0-20.3-0.3-20.4-0.3h-0.5L503 260l52.6-47.9c33-30.1 106.9-54.3 156.5-41.6 23.1 5.9 38.9 19.4 45.6 39.1 3.6 10.6 2.3 20.3-4 28.7-13.3 18-49.7 29.5-108.1 34.4-23.8 2-46.5 2.4-62.1 2.4zM564 264.5c43.1 1.6 158.2-1.3 181.3-32.4 4.2-5.6 5-11.9 2.5-19.2-5.6-16.4-18.5-27.3-38.4-32.4-45.7-11.7-116.5 11.5-146.9 39.3l-38.3 34.9 39.8 9.8z" fill="#333333" /><path d="M556.3 300.6s212.1 7.9 189.5-58.4-148.3-36.7-193.7 4.7l-45.4 41.4 49.6 12.3z" fill="#F8B739" /><path d="M576.5 306c-12.4 0-20.3-0.3-20.4-0.3h-0.5L496 291l52.6-47.9c33-30.1 106.9-54.3 156.5-41.6 23.1 5.9 38.9 19.4 45.6 39.1 3.6 10.6 2.3 20.3-4 28.7-13.3 18-49.7 29.5-108.1 34.4-23.8 1.9-46.5 2.3-62.1 2.3zM557 295.4c43.1 1.5 158.2-1.3 181.3-32.4 4.2-5.6 5-11.9 2.5-19.2-5.6-16.4-18.5-27.3-38.4-32.4-45.7-11.7-116.5 11.5-146.9 39.3l-38.3 34.9 39.8 9.8z" fill="#333333" /><path d="M476.9 272.2S293.6 506.6 313.2 521.8l41.4-22.5 29.8 44.1s94.2-157.1 118-225.9c23.1-66.5 11-45.3 11-45.3h-36.5z" fill="#F8B739" /><path d="M384.4 548.6c-1.7 0-3.3-0.9-4.3-2.3L353 506.1l-37.3 20.2c-1.8 1-4 0.8-5.6-0.5-1.3-1-2.9-2.9-3.4-6.3-0.7-5.8 1.5-17.2 24.9-54.9 13.6-21.8 32.8-50 57.1-83.7 41.3-57.3 83.7-111.5 84.1-112 1-1.3 2.5-2 4.1-2h33.7c2.4-3 5-4 7.7-2.7 5.1 2.3 3.4 8.5 1.5 15.8-2.2 8.2-6.4 21.4-12.6 39.2-23.8 68.5-114.6 220.5-118.5 226.9-0.9 1.5-2.5 2.5-4.3 2.5 0.1 0 0.1 0 0 0z m-29.8-54.4c1.7 0 3.3 0.8 4.3 2.3l25.2 37.4c18.4-31.2 92.9-158.6 113.4-218 7.2-20.8 10.7-32.2 12.4-38.5h-30.5c-8.1 10.4-46.5 60-83.7 111.6-60.9 84.5-75.1 114.2-78.1 124.5l34.6-18.7c0.7-0.4 1.6-0.6 2.4-0.6z" fill="#333333" /><path d="M544.8 277.5s155.3-11.8 182-28.4c24.8-15.4-13.8-40.9-56.9-42.7-43.4-1.9-86.7 21.2-108.3 38.9-40.6 33.2-66.4 26.9-66.4 26.9l49.6 5.3z" fill="#EFAC35" /><path d="M487.5 277.7s216.2 104.5 161.2 185.2l-37.3-24.4-29.5 45.9s-41.3-164.6-110.1-194.7l15.7-12z" fill="#F8B739" /><path d="M581.8 489.5c-0.3 0-0.6 0-0.8-0.1-2-0.3-3.7-1.8-4.2-3.8-0.4-1.6-41.5-162.5-107.1-191.2-1.7-0.7-2.8-2.3-3.1-4.1-0.2-1.8 0.5-3.6 2-4.7l15.7-12c1.5-1.2 3.6-1.4 5.4-0.5 6.2 3 151.7 74 171 146.2 4.5 16.8 1.9 32.5-7.7 46.6-1.6 2.3-4.7 3-7.1 1.4l-33-21.5-26.7 41.5c-1 1.4-2.6 2.2-4.4 2.2zM481.4 288.8c56 32.8 92 146.3 102.4 183l23.2-36.1c0.7-1.2 1.9-2 3.3-2.3 1.3-0.3 2.8 0 3.9 0.7l32.9 21.5c5.7-10.4 6.9-21.5 3.6-33.8C634 359.5 508.6 294.1 488 283.7l-6.6 5.1z" fill="#333333" /><path d="M453 287.4a45 27.9 0 1 0 90 0 45 27.9 0 1 0-90 0Z" fill="#CE302F" /><path d="M498 320.5c-28.1 0-50.1-14.5-50.1-33.1s22-33.1 50.1-33.1 50.1 14.5 50.1 33.1-22 33.1-50.1 33.1z m0-55.8c-21.6 0-39.8 10.4-39.8 22.7s18.2 22.7 39.8 22.7c21.6 0 39.8-10.4 39.8-22.7s-18.3-22.7-39.8-22.7z" fill="#333333" /></svg>