<?xml version="1.0" standalone="no"?><!DOCTYPE svg PUBLIC "-//W3C//DTD SVG 1.1//EN" "http://www.w3.org/Graphics/SVG/1.1/DTD/svg11.dtd"><svg class="icon" width="200px" height="200.00px" viewBox="0 0 1024 1024" version="1.1" xmlns="http://www.w3.org/2000/svg"><path d="M686.284399 422.945694a152.6 174.2 9.242 1 0 55.954696-343.87735 152.6 174.2 9.242 1 0-55.954696 343.87735Z" fill="#CE302F" /><path d="M707.9 429.7c-7.4 0-14.9-0.6-22.4-1.8-41.7-6.8-77.8-31.6-101.8-70-23.8-38.1-32.7-85.1-25-132.2 7.7-47.1 31-88.9 65.7-117.5 34.9-28.8 77-40.9 118.7-34.1 85.8 14 142.7 104.7 126.8 202.2-14.5 89-84.6 153.4-162 153.4z m12.5-347.4c-31.8 0-63 11.6-89.7 33.7-32.8 27.1-54.9 66.6-62.2 111.4-7.3 44.7 1.1 89.3 23.6 125.3 22.4 35.9 56.1 59.1 94.9 65.4 80.4 13 158-51.3 173-143.4C875 182.6 821.8 97 741.5 84c-7-1.2-14.1-1.7-21.1-1.7z m144.5 193.2z" fill="#333333" /><path d="M335.3 265.6m-151.2 0a151.2 151.2 0 1 0 302.4 0 151.2 151.2 0 1 0-302.4 0Z" fill="#F8B739" /><path d="M335.4 421.8c-67.6 0-130.1-44.3-150-112.4-24.1-82.7 23.5-169.5 106.2-193.6 82.7-24.1 169.5 23.5 193.6 106.2 24.1 82.7-23.5 169.5-106.2 193.6-14.5 4.2-29.2 6.2-43.6 6.2z m-0.2-302.3c-13.5 0-27.3 1.9-40.9 5.9-37.5 10.9-68.5 35.8-87.2 70-18.8 34.2-23.1 73.7-12.1 111.2C217.6 384 298.9 428.5 376.2 406c77.4-22.6 121.9-103.9 99.4-181.2-18.6-63.9-77.1-105.3-140.4-105.3zM566.5 992c-0.3 0-0.6 0-0.9-0.1-2.7-0.5-4.5-3.1-4-5.8 0.1-0.8 14.9-80 13.7-128.5-0.4-17.3 9.5-36.7 21-59.3 23.3-45.7 55.2-108.3 23-197.3-14.9-41.4-14.5-78.5 1.3-110.3 26.2-52.8 84.9-71.6 87.4-72.3 2.6-0.8 5.4 0.6 6.3 3.3 0.8 2.6-0.6 5.4-3.3 6.3-0.6 0.2-57.2 18.4-81.4 67.3-14.5 29.2-14.8 63.7-0.8 102.4 33.6 93.1 0.6 157.9-23.5 205.3-10.9 21.3-20.2 39.7-19.9 54.5 1.3 49.6-13.2 127.4-13.8 130.6-0.7 2.2-2.8 3.9-5.1 3.9z" fill="#333333" /><path d="M639.5 989.5c-2.5 0-4.7-1.9-5-4.4-0.1-0.5-6-49.6-37.5-75.5-17.6-14.4-57.7-66.7-88.1-133-26.3-57.6-52.5-142-27.8-217.5 13.5-41.2 12.2-75.6-4-102.2-25-41.1-77.5-49.8-78-49.9-2.7-0.4-4.6-3-4.2-5.7 0.4-2.7 3-4.6 5.7-4.2 2.3 0.4 57.6 9.6 85 54.6 17.8 29.2 19.5 66.4 5 110.5-23.8 72.4 1.7 154.2 27.3 210.2 30.8 67.2 70.7 117.5 85.3 129.5 34.7 28.6 40.9 80 41.1 82.2 0.3 2.7-1.7 5.2-4.4 5.5 0-0.1-0.2-0.1-0.4-0.1z" fill="#333333" /><path d="M451.069167 356.830206a128.202564 112.302246 88.152 1 0 224.487674-7.243067 128.202564 112.302246 88.152 1 0-224.487674 7.243067Z" fill="#F8B739" /><path d="M564.3 486.4c-63.2 0-115.8-57.3-118.2-129.4-1.1-35.4 9.9-69.2 31.1-95 21.3-26 50.4-40.9 81.9-41.9 31.4-1 61.4 12 84.4 36.6 22.8 24.4 36 57.4 37.1 92.8 1.1 35.4-9.9 69.2-31.1 95-21.3 26-50.4 40.9-81.9 41.9-1.1-0.1-2.2 0-3.3 0zM562.5 230h-3.1c-28.5 0.9-55 14.5-74.4 38.3-19.6 24-29.9 55.3-28.8 88.3 2.2 67.9 52.1 121.6 111.2 119.7 28.5-0.9 55-14.5 74.4-38.3 19.6-24 29.9-55.3 28.8-88.3-1.1-33-13.3-63.7-34.5-86.3-20.2-21.6-46.2-33.4-73.6-33.4z" fill="#333333" /><path d="M560.8 910.5c-2.7 0-5-2.2-5-5 0-0.6-0.6-59.8-8.3-94.5-2.8-12.7 1.6-28.3 6.8-46.4 10.3-36.1 24.4-85.5-11.2-144.7-16.8-28.1-21.8-55.3-14.8-80.9 11.6-42.4 51.8-64.5 53.5-65.4 2.4-1.3 5.5-0.4 6.8 2 1.3 2.4 0.4 5.5-2 6.8-0.4 0.2-38.2 21.2-48.6 59.3-6.2 22.8-1.6 47.4 13.8 73 37.7 63 23 114.8 12.2 152.6-4.8 16.8-8.9 31.2-6.6 41.5 8 35.7 8.5 94.1 8.5 96.6-0.1 2.8-2.3 5.1-5.1 5.1z" fill="#333333" /><path d="M291.452714 549.150158a87.00174 91.101822 88.152 1 0 182.108879-5.87572 87.00174 91.101822 88.152 1 0-182.108879 5.87572Z" fill="#CE302F" /><path d="M382.2 638.2c-51.5 0-94.2-39.2-95.8-88.9-1.6-50.7 40.1-93.3 93.1-95 53-1.7 97.4 38.1 99 88.8s-40.1 93.3-93.1 95c-1 0.1-2.1 0.1-3.2 0.1z m0.6-173.9h-3c-47.5 1.5-84.9 39.5-83.4 84.7 1.4 44.2 39.6 79.2 85.8 79.2h3c47.5-1.5 84.9-39.5 83.4-84.7-1.4-44.3-39.6-79.2-85.8-79.2z" fill="#333333" /><path d="M379.9 982.4c-2.7 0-5-2.2-5-5 0-0.5-0.5-48.4-6.7-76.5-2.4-10.6 1.3-23.3 5.5-38.1 8.3-29.1 19.7-69-9-116.7-13.8-23-17.9-45.4-12.1-66.4 9.5-34.8 42.5-52.9 43.9-53.7 2.4-1.3 5.5-0.4 6.8 2 1.3 2.4 0.4 5.5-2 6.8-0.4 0.2-30.7 17-39 47.6-5 18.2-1.2 37.9 11.1 58.5 30.8 51.5 18.8 93.7 10 124.6-3.8 13.5-7.2 25.1-5.4 33.2 6.5 29.1 6.9 76.6 6.9 78.6 0 2.8-2.2 5.1-5 5.1z" fill="#333333" /><path d="M374.4 186.9m-19.3 0a19.3 19.3 0 1 0 38.6 0 19.3 19.3 0 1 0-38.6 0Z" fill="#F9BB58" /><path d="M591.5 252.4s32.9 10.9 37.4 50.2c4.4 39.4-12 12.4-12 12.4s-9.5-48.3-29.8-50.4c-20.3-2-7.3-18.4 4.4-12.2z" fill="#F9BB58" /><path d="M777.8 132.5s32.9 10.9 37.4 50.2-12 12.4-12 12.4-9.5-48.3-29.8-50.4c-20.3-2.1-7.3-18.5 4.4-12.2zM406.1 486.2s23.2 7.6 26.3 35.4c3.1 27.7-8.5 8.7-8.5 8.7s-6.7-34-21-35.5c-14.2-1.4-5-13 3.2-8.6z" fill="#DB4040" /></svg>