<?xml version="1.0" standalone="no"?><!DOCTYPE svg PUBLIC "-//W3C//DTD SVG 1.1//EN" "http://www.w3.org/Graphics/SVG/1.1/DTD/svg11.dtd"><svg class="icon" width="200px" height="191.22px" viewBox="0 0 1071 1024" version="1.1" xmlns="http://www.w3.org/2000/svg"><path d="M593.9254195 319.69660352m-136.18761112 0a136.1876111 136.1876111 0 1 0 272.37522223 0 136.1876111 136.1876111 0 1 0-272.37522223 0Z" fill="#7dc5eb" /><path d="M357.53956036 829.52582296c-13.66183113 0-27.32366228-6.83952996-36.17887184-17.07298209-9.57878699-12.97270986-12.30081665-27.3064342-8.88966572-40.27914408 27.99555548-142.01068724 145.42183748-249.89263767 285.3996163-261.50433304 3.41115096-0.68912128 6.13317989-1.37824254 8.87243765-1.37824255h25.94541972c49.03098596 3.79016773 84.17617592 10.93980147 105.4183425 21.46613074 21.24216658 10.52632927 33.90477121 17.26249012 37.95335923 20.19125588 81.93653142 46.42955276 138.59953629 127.005069 157.03353285 221.20796092 3.42837901 13.66183113 0 28.01278355-10.2334521 40.29637215a50.8916137 50.8916137 0 0 1-37.55711512 17.055754H357.53956036z" fill="#7dc5eb" /><path d="M242.00836222 851.74998722c-16.38386081 0-32.78494897-8.20054443-43.43187472-20.50136036-11.47387084-15.55691499-14.74719725-32.76772162-10.64692503-48.34186469 33.59466671-170.45417177 174.53721593-299.94007747 342.54500637-313.86032891 4.10027222-0.82694581 7.37359862-1.65389162 10.64692577-1.65389163h31.14828541l-4.10027152 40.98549343h-16.3838608c-6.56388088 0-9.83720728 0-14.76442532 1.63666355h-2.44638131c-151.60670231 10.64692503-278.62899934 127.02229703-308.14062191 281.90232575-0.80971773 4.10027222-0.80971773 9.83720728 3.2733264 13.9374795l0.82694582 1.63666356c2.46360868 3.2733264 6.5466528 4.90998997 11.47387084 4.90998995h634.28454013c4.92721804 0 9.02749025-1.63666355 11.47387085-4.90998995 4.10027222-4.90998997 4.92721804-9.81997922 4.10027222-15.57414307-18.84746947-101.61094669-80.3170959-187.66497767-167.18084538-236.83378819-7.37359862-4.90998997-15.55691499-9.0102622-22.94774167-13.0933056-2.44638058-1.65389162-4.90998997-2.48083672-7.37359863-4.11750029l-11.47387085-4.90998997 16.40108888-36.86799384 11.47387085 4.90998996c8.18331641 3.2733264 16.38386081 8.18331641 23.7746868 11.47387083l9.81997993 4.90998999c98.33762029 55.73269139 166.35389955 152.43364739 188.47469542 265.51846493 4.10027222 16.38386081 0 33.59466671-12.28358859 48.34186469a61.09060965 61.09060965 0 0 1-45.06853757 20.50136036H242.00836222z" fill="#999999" /><path d="M563.24229048 502.12425867c-103.24760954 0-188.47469541-85.22708589-188.4746954-188.47469542 0-103.26483761 85.22708589-188.49192348 188.4746954-188.49192349 103.26483761 0 188.49192348 85.22708589 188.49192349 188.4746954 0 103.26483761-86.05403169 188.47469541-188.47469543 188.47469544z m0-347.48945248a158.60128415 158.60128415 0 0 0-158.98030094 159.01475705c0 87.67346647 71.30683372 158.96307285 158.98030094 158.96307286 87.69069453 0 158.99752901-71.28960638 158.99752898-158.98030092s-71.30683372-158.98030091-158.99752898-158.98030092z" fill="#999999" /><path d="M563.24229048 506.20730281a192.35100348 192.35100348 0 0 1-192.57496763-192.57496763A192.35100348 192.35100348 0 0 1 563.24229048 121.05736754a192.35100348 192.35100348 0 0 1 192.59219571 192.57496762c0 106.53816402-86.86374872 192.57496764-192.59219571 192.57496765z m0-376.94939083c-101.61094669 0-184.37442322 82.76347724-184.37442321 184.37442318s82.76347724 184.39165127 184.37442321 184.39165128c101.62817477 0 184.39165127-82.78070529 184.39165128-184.39165128S664.87046452 129.25791198 563.24229048 129.25791198z m0 347.45499631a162.97720474 162.97720474 0 0 1-163.06334508-163.08057311 162.97720474 162.97720474 0 0 1 163.06334508-163.08057315 162.97720474 162.97720474 0 0 1 163.08057314 163.08057313c0 90.13707584-73.73598696 163.08057314-163.08057314 163.08057313z m0-317.96060183c-85.22708589 0-154.88002871 69.65294283-154.8800287 154.8800287s69.65294283 154.88002871 154.8800287 154.88002872c85.24431395 0 154.88002871-69.65294283 154.88002871-154.8800287s-69.63571475-154.88002871-154.88002871-154.88002871z" fill="#999999" /></svg>