<?xml version="1.0" standalone="no"?><!DOCTYPE svg PUBLIC "-//W3C//DTD SVG 1.1//EN" "http://www.w3.org/Graphics/SVG/1.1/DTD/svg11.dtd"><svg class="icon" width="200px" height="189.28px" viewBox="0 0 1082 1024" version="1.1" xmlns="http://www.w3.org/2000/svg"><path d="M691.973224 120.154906c-45.402906 31.706384-92.46511 48.859429-141.650546 51.852016l-1.450319 0.079413 1.446139 0.079412c-51.2-2.537012-100.101224-20.350433-147.213584-53.891657a29.257143 29.257143 0 0 0-20.229224-5.241208l-87.604245 9.8304a29.257143 29.257143 0 0 0-15.426874 6.570318l-3.251722 2.700016C222.910171 176.788376 181.185306 214.726531 151.292865 246.140343l-5.659167 5.968457c-28.546612 30.218449-60.762906 66.004114-96.673959 107.365355a29.257143 29.257143 0 0 0-4.81489 30.669845c12.777012 29.913339 33.645714 64.211069 62.618645 103.227559 29.165192 39.275624 55.663804 68.261094 80.005747 87.119412l0.961306 0.710531a29.257143 29.257143 0 0 0 34.61538-0.51409l43.020538-32.575739-23.936522 383.5904a29.257143 29.257143 0 0 0 29.202808 31.079445h556.479216l0.990564-0.016718a29.257143 29.257143 0 0 0 28.212245-31.062727l-23.936523-383.5904 43.024718 32.575739a29.257143 29.257143 0 0 0 35.572507-0.196441c24.346122-18.858318 50.840555-47.843788 80.005746-87.119412 28.972931-39.01649 49.845812-73.310041 62.618645-103.227559a29.257143 29.257143 0 0 0-4.814889-30.669845l-10.65796-12.246204c-34.00098-38.899461-64.553796-72.591151-91.675167-101.087608l-3.795069-3.958074c-30.218449-31.271706-71.771951-68.80862-124.769176-112.765387a29.257143 29.257143 0 0 0-15.414335-6.5536l-87.600065-9.8304a29.257143 29.257143 0 0 0-20.229224 5.241208l-2.674939 1.880816z m27.250939 52.244898l68.010319 7.636114 2.817045 2.353111c49.014073 41.014335 87.052539 75.759282 114.019265 104.092734l2.750171 2.900637c22.147657 23.355559 46.686041 50.301388 73.610972 80.829127l11.665241 13.274383-0.376164 0.743968c-11.080098 21.533257-26.987624 46.339135-47.7184 74.254628l-1.914253 2.570449c-17.825959 23.811135-34.189061 42.928588-48.917943 57.306384l-1.379265 1.337469-74.923363-56.717061-0.769045-0.568425c-19.903216-14.139559-47.626449 1.065796-46.088359 25.717029l25.963624 416.132702H301.77071l25.967804-416.132702 0.041796-0.957127c0.785763-24.400457-27.209143-39.100082-46.903379-24.191477l-74.923364 56.717061-1.379265-1.337469c-15.25551-14.891886-32.262269-34.866155-50.832196-59.876833l-2.127412-2.875559c-18.966988-25.758824-33.758563-48.817633-44.378906-69.055216l-1.592425-3.067821 8.29231-9.441698c27.125551-30.82449 51.864555-58.071249 74.208654-81.723559l7.272489-7.657012 3.640425-3.769992c25.938547-26.632359 61.109812-58.614596 105.442743-95.825502l6.001894-5.032229 68.014498-7.636114 2.286236 1.525551c52.579265 34.774204 108.259788 53.791347 166.623608 56.683625a29.257143 29.257143 0 0 0 2.892278 0c58.368-2.892278 114.044343-21.905241 166.627788-56.683625l2.277877-1.525551z" fill="#00C1A5" /><path d="M270.628571 933.524376l27.907135-447.216327-93.848555 71.053061c-21.9136-16.969143-46.723657-44.115592-74.434351-81.435167-27.710694-37.315396-47.442547-69.740669-59.199739-97.271641 38.030106-43.802122 71.838824-81.251265 101.434515-112.347429 29.59151-31.091984 71.608947-69.214041 126.04813-114.366171L386.139951 142.106122c51.542727 36.700996 105.785469 56.462106 162.732408 59.279151 56.946939-2.817045 111.189682-22.578155 162.736588-59.279151l87.600065 9.83458c54.443363 45.152131 96.45662 83.274188 126.05231 114.370351 29.59151 31.091984 63.404408 68.541127 101.430335 112.343249-11.753012 27.530971-31.489045 59.956245-59.199739 97.271641-27.710694 37.319576-52.520751 64.461845-74.430171 81.435167l-93.852735-71.053061 27.902955 447.216327H270.632751z" fill="#00C1A5" fill-opacity=".6" /></svg>